PathFileType	4	(X/Y/Z)	..\data\2014050\dynamic\2014050_C4_04.trc
DataRate	CameraRate	NumFrames	NumMarkers	Units	OrigDataRate	OrigDataStartFrame	OrigNumFrames
100.000000	100.000000	4	52	mm	100.000000	144	165
Frame#	Time	L_IAS			L_IPS			R_IPS			R_IAS			L_FTC			L_FLE			L_FME			L_FAX			L_TTC			L_FAL			L_TAM			L_FCC			L_FM1			L_FM2			L_FM5			R_FTC			R_FLE			R_FME			R_FAX			R_TTC			R_FAL			R_TAM			R_FCC			R_FM1			R_FM2			R_FM5			CV7			TV10			SXS			SJN			L_SIA			L_SRS			L_SAA			L_SAE			L_HLE			L_HME			L_UOA			L_RSP			L_UHE			L_HM2			L_HM5			R_SIA			R_SRS			R_SAA			R_SAE			R_HLE			R_HME			R_UOA			R_RSP			R_UHE			R_HM2			R_HM5			
		X1	Y1	Z1	X2	Y2	Z2	X3	Y3	Z3	X4	Y4	Z4	X5	Y5	Z5	X6	Y6	Z6	X7	Y7	Z7	X8	Y8	Z8	X9	Y9	Z9	X10	Y10	Z10	X11	Y11	Z11	X12	Y12	Z12	X13	Y13	Z13	X14	Y14	Z14	X15	Y15	Z15	X16	Y16	Z16	X17	Y17	Z17	X18	Y18	Z18	X19	Y19	Z19	X20	Y20	Z20	X21	Y21	Z21	X22	Y22	Z22	X23	Y23	Z23	X24	Y24	Z24	X25	Y25	Z25	X26	Y26	Z26	X27	Y27	Z27	X28	Y28	Z28	X29	Y29	Z29	X30	Y30	Z30	X31	Y31	Z31	X32	Y32	Z32	X33	Y33	Z33	X34	Y34	Z34	X35	Y35	Z35	X36	Y36	Z36	X37	Y37	Z37	X38	Y38	Z38	X39	Y39	Z39	X40	Y40	Z40	X41	Y41	Z41	X42	Y42	Z42	X43	Y43	Z43	X44	Y44	Z44	X45	Y45	Z45	X46	Y46	Z46	X47	Y47	Z47	X48	Y48	Z48	X49	Y49	Z49	X50	Y50	Z50	X51	Y51	Z51	X52	Y52	Z52	

145	1.44	1595.110229492188	885.0665283203127	-293.4092102050782	1394.97021484375	903.5408935546877	-247.0534057617188	1397.7041015625	903.6616821289065	-137.8922271728516	1596.597290039063	888.1683349609377	-84.70511627197267	1548.499877929688	803.152770996094	-386.5688781738282	1681.998046875	449.9492797851564	-345.1097412109376	1714.669921875	449.8410034179689	-214.1585998535157	1654.922973632813	390.2334899902345	-346.7586669921876	1720.38623046875	380.3356323242188	-299.6588439941407	1615.786254882813	85.69049072265626	-313.4811401367188	1646.534912109375	87.85853576660158	-231.2414245605469	1577.249633789063	35.46512603759766	-254.8225097656251	1748.107177734375	38.26922225952149	-258.8062438964844	1744.914794921875	55.54060745239259	-307.7810974121094	1702.820678710938	32.02431106567384	-347.5593872070313	1519.585571289063	787.017517089844	3.477052688598634	1463.242065429688	428.8028564453126	-60.01025390625001	1470.679931640625	425.0088500976564	-200.444320678711	1426.662353515625	376.2989501953126	-57.50666427612306	1492.6181640625	363.9771423339844	-117.0194778442383	1364.387084960938	61.39818572998048	-106.7380447387696	1380.240478515625	79.08813476562501	-196.4744720458985	1315.208129882813	23.44393730163575	-153.784912109375	1493.491943359375	10.99121952056885	-191.5026550292969	1505.324096679688	30.57298660278321	-135.3620910644532	1464.7568359375	13.00791740417481	-83.25569152832033	1482.12060546875	1379.045776367188	-191.3498840332032	1392.72119140625	1158.164184570313	-188.2267456054688	1618.820434570313	1058.29345703125	-199.6073303222657	1589.767456054688	1285.249389648438	-195.7704315185547	1385.185180664063	1199.621215820313	-271.3377075195313	1428.777099609375	1314.479125976563	-280.8482971191407	1474.954711914063	1326.174560546875	-347.4678649902344	1520.702514648438	1324.702758789063	-364.9985351562501	1421.453491210938	1042.76025390625	-435.7827758789064	1375.883056640625	1041.012451171875	-364.6055603027344	1379.064453125	1021.600769042969	-417.2801208496095	1437.02294921875	806.901306152344	-392.5972900390626	1400.668579101563	819.9627685546877	-452.615447998047	1435.701416015625	727.1019287109376	-385.436492919922	1370.619750976563	755.1262817382814	-452.0840148925782	1394.27734375	1211.616455078125	-104.3150711059571	1435.892211914063	1315.030395507813	-103.6567001342774	1484.581787109375	1321.432006835938	-36.3608512878418	1540.901611328125	1326.985229492188	-34.89298248291016	1553.144409179688	1029.946655273438	68.05922698974611	1519.110229492188	1002.132629394531	-1.702460408210755	1533.449340820313	983.9934082031252	46.87499237060548	1726.985107421875	872.120300292969	48.40296936035158	1668.26611328125	840.301940917969	79.89516448974611	1784.484497070313	812.0603027343752	53.91038513183595	1702.42041015625	768.5659179687502	74.04634857177736	
146	1.45	1606.790283203125	883.7545166015627	-294.1607360839844	1406.210571289063	901.9035644531252	-247.8853912353516	1408.702514648438	902.1363525390627	-138.8407440185547	1607.497314453125	886.5615234375002	-85.0420379638672	1560.35107421875	802.0311279296877	-387.1687927246095	1695.155395507813	448.9502563476564	-344.7082824707032	1725.9697265625	449.0777893066407	-213.3092346191407	1671.361694335938	387.9003295898439	-346.9420166015626	1736.593383789063	381.2487182617188	-298.7767944335938	1652.179809570313	81.3164520263672	-314.7493591308594	1681.6884765625	85.36450958251955	-232.0009155273438	1616.359375	28.62001991271973	-256.5333862304688	1786.459228515625	42.03676223754884	-257.7784423828126	1783.138427734375	59.18831253051759	-306.8963012695313	1743.120849609375	33.17300415039063	-347.2731018066407	1529.348388671875	786.1712646484377	3.054662942886353	1468.179809570313	428.7406311035157	-60.35890579223634	1476.314453125	424.7366943359376	-200.6947326660157	1430.850952148438	376.6870422363282	-57.93225097656251	1496.71240234375	363.5389099121094	-117.0154876708985	1364.638427734375	62.43981170654298	-107.1540145874024	1381.146240234375	79.78881072998048	-196.9708709716797	1315.425659179688	25.02090454101563	-154.4726104736328	1493.509887695313	11.01268863677979	-191.6582489013672	1505.18408203125	30.50574493408204	-135.4388580322266	1464.426025390625	13.14212036132813	-83.5247039794922	1493.759643554688	1377.687744140625	-191.7594299316407	1404.046630859375	1157.05517578125	-188.7146148681641	1630.075927734375	1056.691162109375	-200.3271636962891	1601.359130859375	1283.661376953125	-196.3786010742188	1396.060302734375	1198.3154296875	-271.3248291015626	1440.108032226563	1313.178588867188	-281.0757141113282	1486.0595703125	1324.7734375	-347.6698608398438	1531.601318359375	1323.25048828125	-365.6449890136719	1427.671997070313	1042.67431640625	-435.4265747070314	1382.758911132813	1041.985107421875	-363.8203125000001	1385.3310546875	1022.480590820313	-416.5274047851564	1438.9306640625	806.7984008789065	-392.0189819335939	1402.661010742188	820.4005126953127	-451.9294433593751	1435.457885742188	727.1560668945314	-384.0809631347657	1370.91357421875	756.1673583984376	-450.7424316406251	1405.7861328125	1210.557495117188	-104.5914993286133	1447.6396484375	1313.894897460938	-103.9670639038086	1496.548217773438	1320.035766601563	-36.67304992675782	1552.893432617188	1325.515258789063	-35.53870391845704	1568.020141601563	1029.3701171875	68.72010803222658	1533.710205078125	1000.640563964844	-0.8807987570762636	1548.839111328125	982.779724121094	47.67943191528321	1745.47607421875	875.9517211914065	46.42639541625977	1688.364379882813	842.3003540039065	78.29946136474611	1804.731689453125	817.7304687500002	51.09265518188478	1724.14990234375	771.6575927734377	71.8050994873047	
147	1.46	1618.595336914063	882.566589355469	-295.0128784179688	1417.607055664063	900.1850585937502	-248.7868652343751	1419.766479492188	900.5587158203127	-139.8978271484375	1618.459838867188	885.1123657226565	-85.46590423583986	1572.0068359375	800.7730712890627	-387.8312988281251	1707.715698242188	447.6876831054689	-344.4609375000001	1736.452270507813	447.8048095703126	-212.4934234619141	1687.215698242188	385.6640930175782	-347.2047424316407	1752.142211914063	382.0274963378907	-298.0945739746094	1687.7578125	78.09005737304689	-316.0401306152344	1715.90673828125	83.83825683593751	-232.8156890869141	1654.68798828125	23.02854156494141	-258.2904968261719	1823.4736328125	46.69163131713868	-256.6202697753907	1820.158569335938	63.7126808166504	-305.8546447753907	1782.339965820313	35.37041473388673	-346.8732299804688	1539.204223632813	785.4267578125002	2.591954231262207	1473.501953125	428.7512512207032	-60.76258850097658	1482.399780273438	424.5507202148439	-200.936508178711	1435.4423828125	377.1673583984376	-58.3932456970215	1501.16796875	363.1714477539063	-117.0190124511719	1364.980102539063	63.64019012451173	-107.5264968872071	1382.169799804688	80.62804412841798	-197.4226531982422	1315.666381835938	26.87951850891114	-155.1158599853516	1493.503051757813	11.05842018127442	-191.8010406494141	1505.029418945313	30.45741844177247	-135.5040283203125	1464.072021484375	13.31329441070557	-83.78075408935548	1505.433471679688	1376.296020507813	-192.2383117675782	1415.380859375	1155.926147460938	-189.3388366699219	1641.314575195313	1055.040649414063	-201.1322784423829	1612.988403320313	1282.010131835938	-197.0330200195313	1407.015869140625	1197.014770507813	-271.4467468261719	1451.518920898438	1311.87158203125	-281.4100952148438	1497.269775390625	1323.373901367188	-347.9594726562501	1542.583740234375	1321.789428710938	-366.3495788574219	1434.295654296875	1042.541625976563	-435.0170898437501	1389.984497070313	1042.906372070313	-362.9768676757813	1391.923217773438	1023.323059082031	-415.735076904297	1441.272705078125	806.7510986328127	-391.422576904297	1405.074096679688	820.889587402344	-451.2113037109376	1435.678466796875	727.2607421875001	-382.7129211425782	1371.719970703125	757.3161621093751	-449.4078674316407	1417.268310546875	1209.489501953125	-105.0000610351563	1459.384765625	1312.725708007813	-104.3654403686524	1508.49853515625	1318.602661132813	-37.07186889648438	1564.87646484375	1323.980102539063	-36.25279235839844	1582.659912109375	1028.766235351563	69.20320129394533	1548.056274414063	999.1499023437502	-0.199991911649704	1563.930908203125	981.5623779296877	48.32715988159181	1763.393432617188	879.611022949219	44.29246520996094	1707.8544921875	844.2346801757815	76.53594207763673	1824.2275390625	823.1536254882815	48.09493637084962	1745.151611328125	774.7225341796877	69.43837738037111	
148	1.47	1630.542602539063	881.5180664062502	-295.9311523437501	1429.191528320313	898.4158935546877	-249.7951660156251	1430.915649414063	898.962829589844	-141.0917510986328	1629.498291015625	883.8528442382815	-85.95767974853517	1583.554565429688	799.392517089844	-388.5468750000001	1719.786376953125	446.2146301269532	-344.3764038085938	1746.243408203125	446.1166381835939	-211.7209625244141	1702.526245117188	383.5550842285157	-347.5388183593751	1767.083374023438	382.6830749511719	-297.5968017578126	1722.12744140625	75.94223022460939	-317.3100891113282	1748.830932617188	83.20275878906251	-233.6482696533204	1691.771118164063	18.65570068359375	-260.0422363281251	1858.799926757813	52.02680969238283	-255.3409118652344	1855.609375	68.91017913818361	-304.6638488769532	1820.051391601563	38.43413925170899	-346.3457031250001	1549.180908203125	784.8061523437502	2.076555967330933	1479.219116210938	428.8461303710939	-61.21230697631837	1488.9453125	424.4601135253907	-201.1664123535157	1440.450927734375	377.7532958984376	-58.87374496459962	1506.003662109375	362.8797607421876	-117.0300521850586	1365.437377929688	65.00427246093751	-107.830680847168	1383.3134765625	81.62591552734376	-197.7907257080079	1315.942138671875	29.0295524597168	-155.6688385009766	1493.485107421875	11.12802505493164	-191.919174194336	1504.88525390625	30.43208694458009	-135.548080444336	1463.72509765625	13.51555252075196	-84.00584411621095	1517.14111328125	1374.891967773438	-192.7984771728516	1426.731811523438	1154.791137695313	-190.0906829833985	1652.550170898438	1053.380859375	-202.0170288085938	1624.657470703125	1280.3349609375	-197.7437896728516	1418.057739257813	1195.736938476563	-271.7021179199219	1463.010498046875	1310.570678710938	-281.8534545898438	1508.585693359375	1321.993041992188	-348.3471984863282	1553.654541015625	1320.334594726563	-367.1148681640626	1441.346435546875	1042.365112304688	-434.5712280273439	1397.581176757813	1043.769775390625	-362.0965576171876	1398.849365234375	1024.123779296875	-414.9292907714845	1444.0888671875	806.7578125000002	-390.8257446289064	1407.952758789063	821.4166259765627	-450.4837036132814	1436.415283203125	727.4155273437501	-381.3462219238282	1373.088745117188	758.5518798828126	-448.105438232422	1428.734252929688	1208.4287109375	-105.5337753295899	1471.1298828125	1311.544189453125	-104.856689453125	1520.433837890625	1317.165283203125	-37.56710815429688	1576.852416992188	1322.414306640625	-37.04438400268555	1597.032836914063	1028.144653320313	69.49815368652345	1562.138061523438	997.6834106445315	0.3265527188777924	1578.710083007813	980.355407714844	48.80393600463869	1780.713500976563	883.0776367187502	42.0158920288086	1726.693481445313	846.1001586914065	74.62048339843751	1842.953125	828.2996215820315	44.94706344604493	1765.390869140625	777.7232055664065	66.95159149169923	
